<?xml version="1.0" encoding="UTF-8"?>
<svg xmlns="http://www.w3.org/2000/svg" xmlns:xlink="http://www.w3.org/1999/xlink" viewBox="0 0 350 185">
  <defs>
    <style>
      .cls-1 {
        letter-spacing: -.01em;
      }

      .cls-2, .cls-3, .cls-4, .cls-5, .cls-6, .cls-7, .cls-8, .cls-9, .cls-10 {
        fill: #fff;
      }

      .cls-11 {
        fill: url(#linear-gradient-17);
      }

      .cls-3 {
        filter: url(#drop-shadow-7);
      }

      .cls-3, .cls-4, .cls-7, .cls-8, .cls-9, .cls-12 {
        mix-blend-mode: overlay;
      }

      .cls-13 {
        letter-spacing: 0em;
      }

      .cls-14 {
        letter-spacing: 0em;
      }

      .cls-15 {
        fill: url(#linear-gradient-15);
      }

      .cls-16 {
        fill: url(#linear-gradient-18);
      }

      .cls-17 {
        fill: url(#linear-gradient-14);
      }

      .cls-18 {
        filter: url(#drop-shadow-4);
      }

      .cls-19 {
        fill: url(#linear-gradient-20);
      }

      .cls-20 {
        fill: url(#linear-gradient-6);
      }

      .cls-21 {
        isolation: isolate;
      }

      .cls-22 {
        letter-spacing: -.02em;
      }

      .cls-23 {
        letter-spacing: 0em;
      }

      .cls-24 {
        fill: url(#linear-gradient-11);
      }

      .cls-25 {
        filter: url(#drop-shadow-3);
      }

      .cls-5 {
        filter: url(#drop-shadow-9);
      }

      .cls-26 {
        fill: url(#linear-gradient-10);
      }

      .cls-27 {
        fill: url(#radial-gradient);
      }

      .cls-28 {
        fill: url(#linear-gradient-16);
      }

      .cls-6 {
        font-size: 5.06px;
      }

      .cls-6, .cls-10 {
        font-family: Montserrat-Light, Montserrat;
        font-weight: 300;
      }

      .cls-29 {
        filter: url(#drop-shadow-5);
      }

      .cls-7 {
        filter: url(#drop-shadow-8);
      }

      .cls-30 {
        fill: url(#linear-gradient-5);
      }

      .cls-31 {
        fill: url(#linear-gradient-7);
      }

      .cls-8 {
        opacity: .5;
      }

      .cls-32 {
        fill: url(#linear-gradient-2);
        filter: url(#drop-shadow-1);
      }

      .cls-9 {
        filter: url(#drop-shadow-6);
      }

      .cls-33 {
        fill: #3d6aac;
      }

      .cls-34 {
        fill: url(#linear-gradient-9);
      }

      .cls-35 {
        fill: url(#linear-gradient-3);
        filter: url(#drop-shadow-2);
      }

      .cls-36 {
        fill: url(#linear-gradient);
      }

      .cls-10 {
        font-size: 19.15px;
      }

      .cls-37 {
        fill: url(#linear-gradient-19);
      }

      .cls-38 {
        fill: url(#linear-gradient-4);
      }

      .cls-39 {
        fill: url(#linear-gradient-8);
      }

      .cls-40 {
        fill: url(#linear-gradient-12);
      }

      .cls-41 {
        fill: url(#linear-gradient-13);
      }
    </style>
    <radialGradient id="radial-gradient" cx="175" cy="65.21" fx="175" fy="65.21" r="200.6" gradientTransform="translate(0 39.57) scale(1 .81)" gradientUnits="userSpaceOnUse">
      <stop offset=".12" stop-color="#00314b"></stop>
      <stop offset=".42" stop-color="#012d49"></stop>
      <stop offset=".66" stop-color="#062444"></stop>
      <stop offset=".88" stop-color="#0e133b"></stop>
      <stop offset="1" stop-color="#150735"></stop>
    </radialGradient>
    <linearGradient id="linear-gradient" x1="146.75" y1="64.43" x2="206.49" y2="124.17" gradientUnits="userSpaceOnUse">
      <stop offset="0" stop-color="#00314b"></stop>
      <stop offset="1" stop-color="#150735"></stop>
    </linearGradient>
    <linearGradient id="linear-gradient-2" x1="173.9" y1="101.64" x2="139.23" y2="66.97" gradientUnits="userSpaceOnUse">
      <stop offset="0" stop-color="#0828ff"></stop>
      <stop offset="1" stop-color="#00b1ff"></stop>
    </linearGradient>
    <filter id="drop-shadow-1">
      <feOffset dx="7" dy="7"></feOffset>
      <feGaussianBlur result="blur" stdDeviation="5"></feGaussianBlur>
      <feFlood flood-color="#070236" flood-opacity=".45"></feFlood>
      <feComposite in2="blur" operator="in"></feComposite>
      <feComposite in="SourceGraphic"></feComposite>
    </filter>
    <linearGradient id="linear-gradient-3" x1="189.93" y1="68.39" x2="210.24" y2="88.7" gradientUnits="userSpaceOnUse">
      <stop offset="0" stop-color="#ff9f00"></stop>
      <stop offset="1" stop-color="#ff0062"></stop>
    </linearGradient>
    <filter id="drop-shadow-2">
      <feOffset dx="7" dy="7"></feOffset>
      <feGaussianBlur result="blur-2" stdDeviation="5"></feGaussianBlur>
      <feFlood flood-color="#070236" flood-opacity=".45"></feFlood>
      <feComposite in2="blur-2" operator="in"></feComposite>
      <feComposite in="SourceGraphic"></feComposite>
    </filter>
    <linearGradient id="linear-gradient-4" x1="125.61" y1="114.87" x2="113.14" y2="102.39" xlink:href="#linear-gradient-3"></linearGradient>
    <linearGradient id="linear-gradient-5" x1="128.17" y1="111.78" x2="123.12" y2="106.73" xlink:href="#linear-gradient"></linearGradient>
    <linearGradient id="linear-gradient-6" x1="111.1" y1="122.9" x2="118.3" y2="122.9" xlink:href="#linear-gradient-3"></linearGradient>
    <linearGradient id="linear-gradient-7" x1="95.49" y1="72.14" x2="111.53" y2="88.17" xlink:href="#linear-gradient-3"></linearGradient>
    <linearGradient id="linear-gradient-8" x1="251.98" y1="93.49" x2="233.04" y2="74.55" xlink:href="#linear-gradient-2"></linearGradient>
    <linearGradient id="linear-gradient-9" x1="196.36" y1="95.48" x2="220" y2="119.12" xlink:href="#linear-gradient-3"></linearGradient>
    <linearGradient id="linear-gradient-10" x1="214.04" y1="120.91" x2="197.23" y2="104.1" xlink:href="#linear-gradient-2"></linearGradient>
    <linearGradient id="linear-gradient-11" x1="196.36" y1="112.28" x2="220" y2="135.92" xlink:href="#linear-gradient-3"></linearGradient>
    <filter id="drop-shadow-3">
      <feOffset dx="7" dy="7"></feOffset>
      <feGaussianBlur result="blur-3" stdDeviation="5"></feGaussianBlur>
      <feFlood flood-color="#070236" flood-opacity=".45"></feFlood>
      <feComposite in2="blur-3" operator="in"></feComposite>
      <feComposite in="SourceGraphic"></feComposite>
    </filter>
    <filter id="drop-shadow-4">
      <feOffset dx="7" dy="7"></feOffset>
      <feGaussianBlur result="blur-4" stdDeviation="5"></feGaussianBlur>
      <feFlood flood-color="#070236" flood-opacity=".45"></feFlood>
      <feComposite in2="blur-4" operator="in"></feComposite>
      <feComposite in="SourceGraphic"></feComposite>
    </filter>
    <filter id="drop-shadow-5">
      <feOffset dx="7" dy="7"></feOffset>
      <feGaussianBlur result="blur-5" stdDeviation="5"></feGaussianBlur>
      <feFlood flood-color="#070236" flood-opacity=".45"></feFlood>
      <feComposite in2="blur-5" operator="in"></feComposite>
      <feComposite in="SourceGraphic"></feComposite>
    </filter>
    <linearGradient id="linear-gradient-12" x1="192.23" y1="158.54" x2="168.92" y2="135.23" xlink:href="#linear-gradient-2"></linearGradient>
    <linearGradient id="linear-gradient-13" x1="124.8" y1="148.51" x2="116.66" y2="140.37" gradientTransform="translate(208.29 -21.87) rotate(67.77)" xlink:href="#linear-gradient-2"></linearGradient>
    <linearGradient id="linear-gradient-14" x1="232.31" y1="47.77" x2="222.66" y2="38.12" xlink:href="#linear-gradient-3"></linearGradient>
    <filter id="drop-shadow-6">
      <feOffset dx="7" dy="7"></feOffset>
      <feGaussianBlur result="blur-6" stdDeviation="5"></feGaussianBlur>
      <feFlood flood-color="#070236" flood-opacity=".45"></feFlood>
      <feComposite in2="blur-6" operator="in"></feComposite>
      <feComposite in="SourceGraphic"></feComposite>
    </filter>
    <linearGradient id="linear-gradient-15" x1="248.9" y1="152.97" x2="213.57" y2="117.64" xlink:href="#linear-gradient-2"></linearGradient>
    <linearGradient id="linear-gradient-16" x1="227.07" y1="145.42" x2="246.19" y2="164.54" xlink:href="#linear-gradient-3"></linearGradient>
    <linearGradient id="linear-gradient-17" x1="254.99" y1="47.59" x2="245.53" y2="38.13" xlink:href="#linear-gradient-2"></linearGradient>
    <linearGradient id="linear-gradient-18" x1="102.34" y1="149.22" x2="92.68" y2="139.57" xlink:href="#linear-gradient-3"></linearGradient>
    <filter id="drop-shadow-7">
      <feOffset dx="7" dy="7"></feOffset>
      <feGaussianBlur result="blur-7" stdDeviation="5"></feGaussianBlur>
      <feFlood flood-color="#070236" flood-opacity=".45"></feFlood>
      <feComposite in2="blur-7" operator="in"></feComposite>
      <feComposite in="SourceGraphic"></feComposite>
    </filter>
    <filter id="drop-shadow-8">
      <feOffset dx="7" dy="7"></feOffset>
      <feGaussianBlur result="blur-8" stdDeviation="5"></feGaussianBlur>
      <feFlood flood-color="#070236" flood-opacity=".45"></feFlood>
      <feComposite in2="blur-8" operator="in"></feComposite>
      <feComposite in="SourceGraphic"></feComposite>
    </filter>
    <linearGradient id="linear-gradient-19" x1="274.19" y1="130.17" x2="257.9" y2="113.89" xlink:href="#linear-gradient-2"></linearGradient>
    <filter id="drop-shadow-9">
      <feOffset dx="7" dy="7"></feOffset>
      <feGaussianBlur result="blur-9" stdDeviation="5"></feGaussianBlur>
      <feFlood flood-color="#070236" flood-opacity=".45"></feFlood>
      <feComposite in2="blur-9" operator="in"></feComposite>
      <feComposite in="SourceGraphic"></feComposite>
    </filter>
    <linearGradient id="linear-gradient-20" x1="251.21" y1="109.09" x2="255.41" y2="113.28" xlink:href="#linear-gradient-3"></linearGradient>
  </defs>
  <g class="cls-21">
    <g id="Layer_1" data-name="Layer 1">
      <rect class="cls-27" x="-10.27" y="-7.75" width="370.55" height="200.51"></rect>
      <g>
        <g>
          <g>
            <rect class="cls-2" x="140.48" y="27.31" width="69.98" height="131.7" rx="11.16" ry="11.16"></rect>
            <path class="cls-36" d="M207.15,40.45v105.43c0,5.41-4.41,9.82-9.82,9.82h-43.71c-5.42,0-9.82-4.4-9.82-9.82V40.45c0-5.42,4.4-9.82,9.82-9.82h5.32v.72c0,2.3,1.87,4.17,4.17,4.17h24.73c2.3,0,4.17-1.87,4.17-4.17v-.72h5.32c5.41,0,9.82,4.4,9.82,9.82Z"></path>
          </g>
          <rect class="cls-4" x="148.03" y="106.37" width="28.48" height="22.03" rx="6.97" ry="6.97"></rect>
          <g class="cls-12">
            <path class="cls-2" d="M185.63,42.65h-20.67c-.51,0-.93,.42-.93,.93h0c0,.51,.42,.93,.93,.93h20.67c.51,0,.93-.42,.93-.93h0c0-.51-.42-.93-.93-.93Z"></path>
            <path class="cls-2" d="M179.56,49.64h-8.51c-.51,0-.93,.42-.93,.93h0c0,.51,.42,.93,.93,.93h8.51c.51,0,.93-.42,.93-.93h0c0-.51-.42-.93-.93-.93Z"></path>
          </g>
        </g>
        <g>
          <g>
            <path class="cls-8" d="M108.69,51.19v10c0,1.37-1.11,2.48-2.48,2.48h-10c-1.37,0-2.48-1.11-2.48-2.48v-10c0-.14,.01-.27,.04-.4h14.89c.02,.13,.04,.27,.04,.4Z"></path>
            <rect class="cls-8" x="70.54" y="66.59" width="11.31" height="11.31" rx="5.27" ry="5.27"></rect>
            <rect class="cls-8" x="77.22" y="72.56" width="9.28" height="9.28" rx="4.32" ry="4.32"></rect>
            <rect class="cls-8" x="117.04" y="59.49" width="22.03" height="22.03" rx="3.08" ry="3.08"></rect>
            <path class="cls-8" d="M98.18,101.32h-8.86c-1.21,0-2.2,.98-2.2,2.2v8.86c0,1.21,.98,2.2,2.2,2.2h8.86c1.21,0,2.2-.98,2.2-2.2v-8.86c0-1.21-.98-2.2-2.2-2.2Zm1.13,11.06c0,.62-.51,1.13-1.13,1.13h-8.86c-.62,0-1.13-.51-1.13-1.13v-8.86c0-.62,.51-1.13,1.13-1.13h8.86c.62,0,1.13,.51,1.13,1.13v8.86Z"></path>
            <path class="cls-8" d="M97.17,122.58h-4.94c-.68,0-1.23,.55-1.23,1.23v4.94c0,.68,.55,1.23,1.23,1.23h4.94c.68,0,1.23-.55,1.23-1.23v-4.94c0-.68-.55-1.23-1.23-1.23Zm.63,6.17c0,.35-.28,.63-.63,.63h-4.94c-.35,0-.63-.28-.63-.63v-4.95c0-.35,.28-.63,.63-.63h4.94c.35,0,.63,.28,.63,.63v4.95Z"></path>
            <path class="cls-8" d="M276.16,129.9h-6.79c-.93,0-1.68,.75-1.68,1.68v6.79c0,.93,.75,1.68,1.68,1.68h6.79c.93,0,1.68-.75,1.68-1.68v-6.79c0-.93-.75-1.68-1.68-1.68Zm.86,8.47c0,.48-.39,.86-.86,.86h-6.79c-.48,0-.86-.39-.86-.86v-6.79c0-.48,.39-.86,.86-.86h6.79c.48,0,.86,.39,.86,.86v6.79Z"></path>
            <path class="cls-8" d="M269.68,54.22h-6.79c-.93,0-1.68,.75-1.68,1.68v6.79c0,.93,.75,1.68,1.68,1.68h6.79c.93,0,1.68-.75,1.68-1.68v-6.79c0-.93-.75-1.68-1.68-1.68Zm.86,8.47c0,.48-.39,.86-.86,.86h-6.79c-.48,0-.86-.39-.86-.86v-6.79c0-.48,.39-.86,.86-.86h6.79c.48,0,.86,.39,.86,.86v6.79Z"></path>
            <path class="cls-8" d="M237.58,54.22h-6.79c-.93,0-1.68,.75-1.68,1.68v6.79c0,.93,.75,1.68,1.68,1.68h6.79c.93,0,1.68-.75,1.68-1.68v-6.79c0-.93-.75-1.68-1.68-1.68Zm.86,8.47c0,.48-.39,.86-.86,.86h-6.79c-.48,0-.86-.39-.86-.86v-6.79c0-.48,.39-.86,.86-.86h6.79c.48,0,.86,.39,.86,.86v6.79Z"></path>
            <path class="cls-8" d="M283.38,97.77h-5.56c-.76,0-1.38,.62-1.38,1.38v5.56c0,.76,.62,1.38,1.38,1.38h5.56c.76,0,1.38-.62,1.38-1.38v-5.56c0-.76-.62-1.38-1.38-1.38Zm.71,6.94c0,.39-.32,.71-.71,.71h-5.56c-.39,0-.71-.32-.71-.71v-5.56c0-.39,.32-.71,.71-.71h5.56c.39,0,.71,.32,.71,.71v5.56Z"></path>
            <path class="cls-8" d="M158.02,11.87h-5.56c-.76,0-1.38,.62-1.38,1.38v5.56c0,.76,.62,1.38,1.38,1.38h5.56c.76,0,1.38-.62,1.38-1.38v-5.56c0-.76-.62-1.38-1.38-1.38Zm.71,6.94c0,.39-.32,.71-.71,.71h-5.56c-.39,0-.71-.32-.71-.71v-5.56c0-.39,.32-.71,.71-.71h5.56c.39,0,.71,.32,.71,.71v5.56Z"></path>
            <path class="cls-8" d="M175.29,164.81h-5.56c-.76,0-1.38,.62-1.38,1.38v5.56c0,.76,.62,1.38,1.38,1.38h5.56c.76,0,1.38-.62,1.38-1.38v-5.56c0-.76-.62-1.38-1.38-1.38Zm.71,6.94c0,.39-.32,.71-.71,.71h-5.56c-.39,0-.71-.32-.71-.71v-5.56c0-.39,.32-.71,.71-.71h5.56c.39,0,.71,.32,.71,.71v5.56Z"></path>
            <rect class="cls-8" x="95.42" y="119.52" width="6.43" height="6.43" rx="2.99" ry="2.99"></rect>
            <rect class="cls-8" x="251.67" y="44.82" width="15.03" height="15.03" rx="2.64" ry="2.64"></rect>
            <rect class="cls-8" x="198.22" y="16.97" width="21.29" height="21.29" rx="2.72" ry="2.72"></rect>
            <rect class="cls-8" x="172.4" y="12.42" width="9.01" height="9.01" rx="4.2" ry="4.2"></rect>
            <rect class="cls-8" x="186.64" y="163.54" width="6.34" height="6.34" rx="2.96" ry="2.96"></rect>
            <rect class="cls-8" x="129.66" y="150.59" width="14.04" height="14.04" rx="6.54" ry="6.54"></rect>
            <rect class="cls-8" x="223.32" y="93.67" width="6.57" height="6.57" rx="3.06" ry="3.06"></rect>
            <rect class="cls-8" x="266.36" y="69.18" width="10.68" height="10.68" rx="4.98" ry="4.98"></rect>
            <rect class="cls-8" x="262.48" y="97.99" width="7.1" height="7.1" rx="3.31" ry="3.31"></rect>
            <rect class="cls-8" x="272.55" y="122.36" width="12.63" height="12.63" rx="5.88" ry="5.88"></rect>
            <rect class="cls-8" x="273.74" y="74.62" width="9.93" height="9.93" rx="4.63" ry="4.63"></rect>
            <rect class="cls-8" x="121.9" y="142.86" width="13.26" height="13.26" rx="6.17" ry="6.17"></rect>
            <rect class="cls-8" x="64.82" y="91.8" width="8.45" height="8.45" rx="3.94" ry="3.94"></rect>
          </g>
          <g>
            <g>
              <g>
                <rect class="cls-32" x="130.29" y="58.03" width="41.09" height="41.09" rx="11.34" ry="11.34"></rect>
                <text class="cls-10" transform="translate(139.56 86.88)">
                  <tspan x="0" y="0">UI</tspan>
                </text>
              </g>
              <g>
                <rect class="cls-35" x="179.57" y="58.03" width="41.09" height="41.09" rx="11.34" ry="11.34"></rect>
                <text class="cls-10" transform="translate(186.02 86.88)">
                  <tspan class="cls-13" x="0" y="0">U</tspan>
                  <tspan class="cls-23" x="15" y="0">X</tspan>
                </text>
              </g>
            </g>
            <g>
              <path class="cls-38" d="M126.58,114.23h-12.29c-2.51,0-4.54-2.03-4.54-4.54h0c0-2.51,2.03-4.54,4.54-4.54h12.29c2.51,0,4.54,2.03,4.54,4.54h0c0,2.51-2.03,4.54-4.54,4.54Z"></path>
              <circle class="cls-30" cx="126.07" cy="109.69" r="3.6"></circle>
            </g>
            <g>
              <path class="cls-2" d="M126.58,127.45h-12.29c-2.51,0-4.54-2.03-4.54-4.54h0c0-2.51,2.03-4.54,4.54-4.54h12.29c2.51,0,4.54,2.03,4.54,4.54h0c0,2.51-2.03,4.54-4.54,4.54Z"></path>
              <circle class="cls-20" cx="114.7" cy="122.9" r="3.6"></circle>
            </g>
            <g>
              <path class="cls-31" d="M117.87,80.88c0,7.81-6.59,14.08-14.52,13.54-6.69-.46-12.11-5.87-12.58-12.56-.54-7.72,5.39-14.19,12.91-14.53,.34-.02,.62,.25,.62,.59v.06c0,.31-.24,.57-.55,.59-6.84,.3-12.24,6.18-11.75,13.2,.42,6.08,5.35,11.01,11.43,11.43,7.21,.5,13.21-5.2,13.21-12.3,0-2.87-.98-5.5-2.61-7.6-.19-.24-.17-.57,.04-.79l.04-.04c.25-.25,.66-.22,.88,.06,1.81,2.3,2.88,5.21,2.88,8.37Z"></path>
              <text class="cls-6" transform="translate(98.79 81.73)">
                <tspan x="0" y="0">9</tspan>
                <tspan class="cls-1" x="3.05" y="0">5</tspan>
                <tspan x="5.82" y="0">%</tspan>
              </text>
            </g>
            <g>
              <path class="cls-39" d="M251.87,90.57c-2.66,2.61-6.39,4.13-10.48,3.85-6.67-.47-12.06-5.85-12.55-12.51-.57-7.73,5.35-14.22,12.87-14.58,.36-.02,.66,.26,.66,.62h0c0,.33-.25,.6-.58,.62-6.54,.3-11.76,5.7-11.76,12.32s5.52,12.34,12.33,12.34c3.37,0,6.42-1.35,8.65-3.54,.24-.24,.63-.23,.86,0h0c.25,.25,.24,.64,0,.89Z"></path>
              <text class="cls-6" transform="translate(236.85 81.73)">
                <tspan class="cls-22" x="0" y="0">7</tspan>
                <tspan class="cls-14" x="2.84" y="0">5</tspan>
                <tspan x="5.62" y="0">%</tspan>
              </text>
            </g>
            <g>
              <path class="cls-34" d="M236.41,107.58h-54.22c-.46,0-.84,.37-.84,.84h0c0,.46,.37,.84,.84,.84h54.22c.46,0,.84-.37,.84-.84h0c0-.46-.37-.84-.84-.84Z"></path>
              <path class="cls-26" d="M236.41,115.33h-54.22c-.46,0-.84,.37-.84,.84h0c0,.46,.37,.84,.84,.84h54.22c.46,0,.84-.37,.84-.84h0c0-.46-.37-.84-.84-.84Z"></path>
              <path class="cls-24" d="M236.41,124.38h-54.22c-.46,0-.84,.37-.84,.84h0c0,.46,.37,.84,.84,.84h54.22c.46,0,.84-.37,.84-.84h0c0-.46-.37-.84-.84-.84Z"></path>
              <path class="cls-33" d="M236.41,107.58h-19.45v1.67h19.45c.46,0,.84-.37,.84-.84s-.37-.84-.84-.84Z"></path>
              <path class="cls-33" d="M236.41,115.33h-36.46v1.67h36.46c.46,0,.84-.37,.84-.84s-.37-.84-.84-.84Z"></path>
              <path class="cls-33" d="M236.41,124.38h-10.92v1.67h10.92c.46,0,.84-.37,.84-.84s-.37-.84-.84-.84Z"></path>
              <g class="cls-25">
                <path class="cls-2" d="M220.1,108.17c0,1.3-1.06,2.35-2.36,2.35-1.3,0-2.35-1.06-2.35-2.36,0-1.3,1.06-2.35,2.36-2.35,1.3,0,2.35,1.06,2.35,2.36Z"></path>
              </g>
              <g class="cls-18">
                <path class="cls-2" d="M203,115.89c0,1.3-1.06,2.35-2.36,2.35-1.3,0-2.35-1.06-2.35-2.36,0-1.3,1.06-2.35,2.36-2.35,1.3,0,2.35,1.06,2.35,2.36Z"></path>
              </g>
              <g class="cls-29">
                <path class="cls-2" d="M228.1,124.99c0,1.3-1.06,2.35-2.36,2.35-1.3,0-2.35-1.06-2.35-2.36,0-1.3,1.06-2.35,2.36-2.35,1.3,0,2.35,1.06,2.35,2.36Z"></path>
              </g>
            </g>
            <g>
              <rect class="cls-40" x="163.05" y="138.69" width="26.68" height="8.02" rx="4.01" ry="4.01"></rect>
              <path class="cls-2" d="M181.42,141.88h-10.07c-.53,0-.96,.43-.96,.96h0c0,.53,.43,.96,.96,.96h10.07c.53,0,.96-.43,.96-.96h0c0-.53-.43-.96-.96-.96Z"></path>
            </g>
            <g>
              <circle class="cls-41" cx="120.43" cy="144.15" r="6.62" transform="translate(-58.57 201.08) rotate(-67.77)"></circle>
              <polygon class="cls-2" points="123.1 143.63 120.95 143.63 120.95 141.47 119.91 141.47 119.91 143.63 117.76 143.63 117.76 144.67 119.91 144.67 119.91 146.82 120.95 146.82 120.95 144.67 123.1 144.67 123.1 143.63"></polygon>
            </g>
            <g>
              <rect class="cls-17" x="219.29" y="34.74" width="15.69" height="15.69" rx="7.85" ry="7.85"></rect>
              <path class="cls-2" d="M225.89,39.26l3.57,2.58c.51,.37,.51,1.14,0,1.51l-3.57,2.58c-.61,.44-1.47,0-1.47-.75v-5.16c0-.76,.86-1.2,1.47-.75Z"></path>
            </g>
            <g>
              <rect class="cls-9" x="84.47" y="27.07" width="46.48" height="9.09" rx="4.55" ry="4.55"></rect>
              <g>
                <path class="cls-2" d="M92.01,29.92c0,.48-.39,.86-.86,.86s-.86-.39-.86-.86,.39-.86,.86-.86,.86,.39,.86,.86Z"></path>
                <path class="cls-2" d="M93.08,33.56v-1.14c0-.41-.33-.74-.74-.74h-2.38c-.41,0-.74,.33-.74,.74v1.14h3.87Z"></path>
              </g>
              <path class="cls-2" d="M115.63,31.03h-15.1c-.28,0-.51,.23-.51,.51h0c0,.28,.23,.51,.51,.51h15.1c.28,0,.51-.23,.51-.51h0c0-.28-.23-.51-.51-.51Z"></path>
            </g>
            <g>
              <rect class="cls-15" x="215.43" y="135.79" width="41.77" height="9.2" rx="4.6" ry="4.6"></rect>
              <path class="cls-2" d="M243.73,139.54h-14.82c-.42,0-.76,.34-.76,.76h0c0,.42,.34,.76,.76,.76h14.82c.42,0,.76-.34,.76-.76h0c0-.42-.34-.76-.76-.76Z"></path>
            </g>
            <g>
              <rect class="cls-28" x="215.43" y="150.07" width="41.77" height="9.2" rx="4.6" ry="4.6"></rect>
              <path class="cls-2" d="M243.73,153.99h-14.82c-.42,0-.76,.34-.76,.76h0c0,.42,.34,.76,.76,.76h14.82c.42,0,.76-.34,.76-.76h0c0-.42-.34-.76-.76-.76Z"></path>
            </g>
            <g>
              <rect class="cls-11" x="242.14" y="34.74" width="15.69" height="15.69" rx="7.85" ry="7.85"></rect>
              <g>
                <polygon class="cls-2" points="253.14 41.8 253.14 44.78 246.84 44.78 246.84 41.8 246.07 41.8 246.07 45.55 253.91 45.55 253.91 41.8 253.14 41.8"></polygon>
                <path class="cls-2" d="M251.96,42.08l-.54-.54-1.04,1.04v-2.95h-.77v2.95l-1.04-1.04-.54,.54,1.97,1.97,1.97-1.97Zm-1.94,.86l-.03,.03-.03-.03h.06Z"></path>
              </g>
            </g>
            <g>
              <rect class="cls-16" x="89.31" y="136.2" width="15.69" height="15.69" rx="7.85" ry="7.85"></rect>
              <g>
                <polygon class="cls-2" points="100.31 143.62 100.31 146.61 94.01 146.61 94.01 143.62 93.25 143.62 93.25 147.38 101.08 147.38 101.08 143.62 100.31 143.62"></polygon>
                <path class="cls-2" d="M95.19,143.43l.54,.54,1.04-1.04v2.95h.77v-2.95l1.04,1.04,.54-.54-1.97-1.97-1.97,1.97Zm1.94-.86l.03-.03,.03,.03h-.06Z"></path>
              </g>
            </g>
            <g>
              <rect class="cls-3" x="84.47" y="41.7" width="46.48" height="9.09" rx="4.55" ry="4.55"></rect>
              <g>
                <path class="cls-2" d="M93.52,45.2h-3.49c-.27,0-.48,.22-.48,.48v2.5c0,.27,.22,.48,.48,.48h3.49c.27,0,.48-.22,.48-.48v-2.5c0-.27-.22-.48-.48-.48Zm-1.57,1.88v.53c0,.1-.08,.18-.18,.18s-.18-.08-.18-.18v-.53c-.2-.07-.34-.26-.34-.48,0-.29,.23-.51,.51-.51s.52,.23,.52,.51c0,.22-.14,.41-.34,.48Z"></path>
                <path class="cls-2" d="M91.02,44.65v-.57s.04-.08,.08-.08h1.35s.08,.03,.08,.08v.57h.33v-.57c0-.23-.18-.41-.41-.41h-1.35c-.22,0-.41,.18-.41,.41v.57h.33Z"></path>
              </g>
              <g>
                <path class="cls-2" d="M101.39,46.39c0-.33-.27-.6-.6-.6s-.6,.27-.6,.6,.27,.6,.6,.6,.6-.27,.6-.6Z"></path>
                <path class="cls-2" d="M105.62,46.39c0-.33-.27-.6-.6-.6s-.6,.27-.6,.6,.27,.6,.6,.6,.6-.27,.6-.6Z"></path>
                <path class="cls-2" d="M109.86,46.39c0-.33-.27-.6-.6-.6s-.6,.27-.6,.6,.27,.6,.6,.6,.6-.27,.6-.6Z"></path>
                <path class="cls-2" d="M114.09,46.39c0-.33-.27-.6-.6-.6s-.6,.27-.6,.6,.27,.6,.6,.6,.6-.27,.6-.6Z"></path>
              </g>
            </g>
            <g>
              <rect class="cls-7" x="245.64" y="107.2" width="34.22" height="18.76" rx="3.05" ry="3.05"></rect>
              <g>
                <g>
                  <path class="cls-37" d="M275.49,120.41c0,.16-.14,.29-.3,.28-1.14-.08-1.77-.64-2.34-1.13-.59-.52-1.15-1.01-2.27-1.01s-1.65,.71-2.24,1.46c-.61,.79-1.31,1.68-2.67,1.68s-2.08-1.65-2.71-3.25c-.57-1.43-1.16-2.9-2.2-2.9s-1.63,1.47-2.2,2.9c-.64,1.6-1.3,3.25-2.71,3.25s-2.07-1.05-2.69-1.97c-.59-.89-1.15-1.73-2.22-1.73-.15,0-.28-.12-.28-.28s.12-.28,.28-.28c1.38,0,2.07,1.05,2.69,1.97,.59,.89,1.15,1.73,2.22,1.73s1.63-1.47,2.2-2.9c.64-1.6,1.3-3.25,2.71-3.25s2.08,1.65,2.71,3.25c.57,1.43,1.16,2.9,2.2,2.9,1.09,0,1.65-.71,2.24-1.46,.61-.79,1.31-1.68,2.67-1.68s2.03,.61,2.64,1.14c.55,.48,1.06,.93,2.02,1,.14,0,.25,.13,.25,.28h0Z"></path>
                  <circle class="cls-5" cx="260.85" cy="115.51" r="1.51"></circle>
                </g>
                <path class="cls-19" d="M255.28,110.18h-4.58c-.38,0-.68,.31-.68,.68h0c0,.38,.31,.68,.68,.68h4.58c.38,0,.68-.31,.68-.68h0c0-.38-.31-.68-.68-.68Z"></path>
              </g>
            </g>
          </g>
        </g>
      </g>
    </g>
  </g>
</svg>
